<svg t="1762787508260" class="icon" viewBox="0 0 1068 1024" version="1.1" xmlns="http://www.w3.org/2000/svg" p-id="12939" width="16" height="16"><path d="M133.565217 66.782609A66.782609 66.782609 0 0 0 66.782609 133.565217v200.347826A66.782609 66.782609 0 0 0 133.565217 400.695652h200.347826A66.782609 66.782609 0 0 0 400.695652 333.913043V133.565217a66.782609 66.782609 0 0 0-66.782609-66.782608H133.565217zM133.565217 0h200.347826a133.565217 133.565217 0 0 1 133.565218 133.565217v200.347826a133.565217 133.565217 0 0 1-133.565218 133.565218H133.565217a133.565217 133.565217 0 0 1-133.565217-133.565218V133.565217a133.565217 133.565217 0 0 1 133.565217-133.565217z m0 601.043478A66.782609 66.782609 0 0 0 66.782609 667.826087v200.347826A66.782609 66.782609 0 0 0 133.565217 934.956522h200.347826A66.782609 66.782609 0 0 0 400.695652 868.173913V667.826087a66.782609 66.782609 0 0 0-66.782609-66.782609H133.565217zM133.565217 534.26087h200.347826a133.565217 133.565217 0 0 1 133.565218 133.565217v200.347826a133.565217 133.565217 0 0 1-133.565218 133.565217H133.565217a133.565217 133.565217 0 0 1-133.565217-133.565217V667.826087a133.565217 133.565217 0 0 1 133.565217-133.565217zM634.434783 66.782609h400.695652a33.391304 33.391304 0 0 1 0 66.782608h-400.695652a33.391304 33.391304 0 0 1 0-66.782608z m0 534.260869h400.695652a33.391304 33.391304 0 0 1 0 66.782609h-400.695652a33.391304 33.391304 0 0 1 0-66.782609z m0-267.130435h400.695652a33.391304 33.391304 0 0 1 0 66.782609h-400.695652a33.391304 33.391304 0 0 1 0-66.782609z m0 534.26087h400.695652a33.391304 33.391304 0 0 1 0 66.782609h-400.695652a33.391304 33.391304 0 0 1 0-66.782609z" fill="#ff793f" p-id="12940" data-spm-anchor-id="a313x.search_index.0.i21.26c13a81TCDvSe" class="selected"></path></svg>