<svg t="1762866570243" class="icon" viewBox="0 0 1024 1024" version="1.1" xmlns="http://www.w3.org/2000/svg" p-id="8710" width="16" height="16"><path d="M795.989333 910.222222a35.271111 35.271111 0 0 1-35.953777-34.417778V733.866667h-147.911112a34.474667 34.474667 0 1 1 0-68.892445h147.911112V515.811556a36.010667 36.010667 0 0 1 72.021333 0v149.333333h155.989333a34.474667 34.474667 0 1 1 0 68.892444h-156.046222v141.653334a35.271111 35.271111 0 0 1-36.010667 34.531555z m-256 0H72.021333A70.599111 70.599111 0 0 1 0 841.272889V182.670222A70.599111 70.599111 0 0 1 72.021333 113.777778H395.377778a71.452444 71.452444 0 0 1 68.608 47.957333L489.244444 236.316444h463.018667A70.599111 70.599111 0 0 1 1024 305.208889v141.653333a36.010667 36.010667 0 0 1-72.021333 0v-141.653333H72.021333v536.064h467.968a34.474667 34.474667 0 1 1 0 68.892444zM72.021333 182.670222v53.589334h341.333334l-17.976889-53.589334z" opacity=".65" p-id="8711"></path></svg>