<?xml version="1.0" standalone="no"?><!DOCTYPE svg PUBLIC "-//W3C//DTD SVG 1.1//EN" "http://www.w3.org/Graphics/SVG/1.1/DTD/svg11.dtd"><svg t="1762786703970" class="icon" viewBox="0 0 1152 1024" version="1.1" xmlns="http://www.w3.org/2000/svg" p-id="5648" xmlns:xlink="http://www.w3.org/1999/xlink" width="18" height="16"><path d="M887.68192 480.128c145.984 0 264.32 121.728 264.32 271.936C1152.00192 902.272 1033.66592 1024 887.68192 1024c-145.92 0-264.32-121.728-264.32-272 0-150.144 118.4-271.872 264.32-271.872zM857.79392 0a156.608 156.608 0 0 1 155.584 146.88l0.32 10.304v196.48a39.104 39.104 0 0 1-39.04 39.232 39.04 39.04 0 0 1-38.4-32.896l-0.576-6.4v-196.48c0-40.704-30.656-74.112-69.952-78.144l-7.936-0.384H155.96992a78.08 78.08 0 0 0-77.632 70.4l-0.384 8.064v707.328c0 40.64 30.72 74.112 70.016 78.08l8 0.448H506.88192v0.064l6.272 0.448c16.32 2.56 29.248 15.744 32.064 32.448l0.576 6.4-0.512 6.4a39.04 39.04 0 0 1-32.064 32.384l-6.4 0.512H155.96992a156.48 156.48 0 0 1-155.52-146.816L0.00192 864.448V157.248A156.736 156.736 0 0 1 145.72992 0.256L155.96992 0h701.824z m29.888 582.08a33.024 33.024 0 0 0-32.512 27.136l-0.512 5.952v102.848H756.48192a33.984 33.984 0 0 0-33.536 28.544l-0.448 5.504c0 16.896 12.352 30.912 28.48 33.536l5.504 0.448h98.112l0.064 102.912c0 16.256 11.712 29.76 27.072 32.512l5.952 0.576a33.024 33.024 0 0 0 32.512-27.136l0.512-5.952v-102.912h98.176a33.984 33.984 0 0 0 33.536-28.48l0.448-5.504a33.984 33.984 0 0 0-28.48-33.536l-5.504-0.448-98.176-0.064V615.168a33.024 33.024 0 0 0-27.072-32.512l-5.952-0.576zM310.52992 312.96v143.36h55.936v274.56h-51.392v133.568H251.52192V730.88H192.00192V456.192h54.848V312.96h63.68z m254.528-179.968v160.192h57.408v274.624H566.40192v169.472h-61.76V567.808H448.00192V293.184h55.296V132.992h61.76z" fill="#d81e06" p-id="5649"></path></svg>