<?xml version="1.0" standalone="no"?><!DOCTYPE svg PUBLIC "-//W3C//DTD SVG 1.1//EN" "http://www.w3.org/Graphics/SVG/1.1/DTD/svg11.dtd"><svg t="1762085235317" class="icon" viewBox="0 0 1024 1024" version="1.1" xmlns="http://www.w3.org/2000/svg" p-id="4888" width="16" height="16" xmlns:xlink="http://www.w3.org/1999/xlink"><path d="M544.914286 274.285714h69.485714c21.942857 0 40.228571 18.285714 40.228571 43.885715V768c0 25.6-18.285714 43.885714-40.228571 43.885714h-69.485714V914.285714c0 10.971429-10.971429 21.942857-21.942857 21.942857s-21.942857-10.971429-21.942858-21.942857v-102.4h-58.514285c-21.942857 0-40.228571-18.285714-40.228572-43.885714V318.171429c0-21.942857 18.285714-43.885714 40.228572-43.885715h58.514285V76.8c0-10.971429 10.971429-21.942857 21.942858-21.942857s21.942857 10.971429 21.942857 21.942857v197.485714z m299.885714-76.8h84.114286c21.942857 0 43.885714 18.285714 43.885714 43.885715v281.6c0 25.6-18.285714 43.885714-43.885714 43.885714h-84.114286v73.142857c0 10.971429-10.971429 21.942857-21.942857 21.942857s-21.942857-10.971429-21.942857-21.942857v-73.142857h-43.885715c-21.942857 0-43.885714-18.285714-43.885714-43.885714V241.371429c0-25.6 18.285714-43.885714 43.885714-43.885715h43.885715V76.8c0-10.971429 10.971429-21.942857 21.942857-21.942857s21.942857 10.971429 21.942857 21.942857v120.685714zM190.171429 650.971429h76.8c21.942857 0 43.885714 18.285714 43.885714 43.885714v135.314286c0 25.6-18.285714 43.885714-43.885714 43.885714H190.171429V950.857143c0 10.971429-10.971429 21.942857-21.942858 21.942857S146.285714 961.828571 146.285714 950.857143v-76.8H98.742857c-21.942857 0-43.885714-18.285714-43.885714-43.885714V694.857143c0-25.6 18.285714-43.885714 43.885714-43.885714h51.2v-266.971429c0-10.971429 10.971429-21.942857 21.942857-21.942857s21.942857 10.971429 21.942857 21.942857v266.971429z" fill="#d81e06" p-id="4889"></path></svg>